<svg width="150" height="36" viewBox="0 0 150 36" fill="none" xmlns="http://www.w3.org/2000/svg">
<path d="M0 0C9.25373 0 16.7644 7.51064 16.7644 16.7644V32.6942C7.51064 32.6942 0 25.1836 0 15.9299V0Z" fill="#3146B8"/>
<path d="M18.2344 19.1397V10.6778C18.2344 4.78209 23.0165 0 28.915 0V8.46193C28.915 14.3605 24.133 19.1426 18.2344 19.1426V19.1397Z" fill="#F55A56"/>
<path d="M18.2344 20.8003H30.4815C37.0466 20.8003 42.3755 26.1292 42.3755 32.6943H30.1284C23.5633 32.6943 18.2344 27.3653 18.2344 20.8003Z" fill="#3146B8"/>
<path d="M68.7167 5.43566V33.1303H61.9706V21.7289H51.4766V33.1303H44.7305V5.43566H51.4766V16.2847H61.9706V5.43566H68.7167Z" fill="#3146B8"/>
<path d="M104.95 5.43566V33.1303H98.2042V16.5214L92.0104 33.1303H86.5661L80.3329 16.482V33.1303H73.5868V5.43566H81.5559L89.3277 24.6089L97.0207 5.43566H104.95Z" fill="#3146B8"/>
<path d="M119.822 33.4065C117.797 33.4065 115.982 33.0777 114.378 32.4202C112.774 31.7627 111.485 30.7895 110.512 29.5008C109.565 28.2121 109.065 26.6603 109.013 24.8456H116.193C116.298 25.8713 116.653 26.6603 117.258 27.2126C117.863 27.7387 118.652 28.0017 119.625 28.0017C120.624 28.0017 121.413 27.7781 121.992 27.331C122.571 26.8576 122.86 26.2132 122.86 25.3979C122.86 24.7141 122.623 24.1486 122.15 23.7015C121.703 23.2544 121.137 22.8862 120.453 22.5969C119.796 22.3076 118.849 21.9788 117.613 21.6106C115.824 21.0583 114.365 20.506 113.234 19.9536C112.103 19.4013 111.13 18.586 110.314 17.5077C109.499 16.4294 109.091 15.0223 109.091 13.2864C109.091 10.709 110.025 8.69695 111.892 7.25041C113.76 5.77757 116.193 5.04115 119.191 5.04115C122.242 5.04115 124.701 5.77757 126.568 7.25041C128.436 8.69695 129.435 10.7221 129.567 13.3259H122.268C122.216 12.4316 121.887 11.7347 121.282 11.235C120.677 10.709 119.901 10.4459 118.954 10.4459C118.139 10.4459 117.481 10.6695 116.982 11.1166C116.482 11.5374 116.232 12.1555 116.232 12.9708C116.232 13.865 116.653 14.562 117.495 15.0617C118.336 15.5614 119.651 16.1006 121.44 16.6792C123.228 17.2841 124.675 17.8627 125.779 18.4151C126.91 18.9674 127.883 19.7695 128.699 20.8216C129.514 21.8736 129.922 23.2281 129.922 24.885C129.922 26.4631 129.514 27.8965 128.699 29.1852C127.91 30.4739 126.752 31.4997 125.227 32.2624C123.701 33.0251 121.9 33.4065 119.822 33.4065Z" fill="#3146B8"/>
</svg>
