<svg width="238" height="34" viewBox="0 0 238 34" fill="none" xmlns="http://www.w3.org/2000/svg">
<path d="M0 0C9.25373 0 16.7644 7.51064 16.7644 16.7644V32.6942C7.51064 32.6942 0 25.1836 0 15.9299V0Z" fill="#3146B8"/>
<path d="M18.2344 19.1397V10.6778C18.2344 4.78209 23.0165 0 28.915 0V8.46193C28.915 14.3605 24.133 19.1426 18.2344 19.1426V19.1397Z" fill="#F55A56"/>
<path d="M18.2344 20.8003H30.4815C37.0466 20.8003 42.3755 26.1292 42.3755 32.6943H30.1284C23.5633 32.6943 18.2344 27.3653 18.2344 20.8003Z" fill="#3146B8"/>
<path d="M68.7167 5.43566V33.1303H61.9706V21.7289H51.4766V33.1303H44.7305V5.43566H51.4766V16.2847H61.9706V5.43566H68.7167Z" fill="#3146B8"/>
<path d="M104.95 5.43566V33.1303H98.2042V16.5214L92.0104 33.1303H86.5661L80.3329 16.482V33.1303H73.5868V5.43566H81.5559L89.3277 24.6089L97.0207 5.43566H104.95Z" fill="#3146B8"/>
<path d="M119.822 33.4065C117.797 33.4065 115.982 33.0777 114.378 32.4202C112.774 31.7627 111.485 30.7895 110.512 29.5008C109.565 28.2121 109.065 26.6603 109.013 24.8456H116.193C116.298 25.8713 116.653 26.6603 117.258 27.2126C117.863 27.7387 118.652 28.0017 119.625 28.0017C120.624 28.0017 121.413 27.7781 121.992 27.331C122.571 26.8576 122.86 26.2132 122.86 25.3979C122.86 24.7141 122.623 24.1486 122.15 23.7015C121.703 23.2544 121.137 22.8862 120.453 22.5969C119.796 22.3076 118.849 21.9788 117.613 21.6106C115.824 21.0583 114.365 20.506 113.234 19.9536C112.103 19.4013 111.13 18.586 110.314 17.5077C109.499 16.4294 109.091 15.0223 109.091 13.2864C109.091 10.709 110.025 8.69695 111.892 7.25041C113.76 5.77757 116.193 5.04115 119.191 5.04115C122.242 5.04115 124.701 5.77757 126.568 7.25041C128.436 8.69695 129.435 10.7221 129.567 13.3259H122.268C122.216 12.4316 121.887 11.7347 121.282 11.235C120.677 10.709 119.901 10.4459 118.954 10.4459C118.139 10.4459 117.481 10.6695 116.982 11.1166C116.482 11.5374 116.232 12.1555 116.232 12.9708C116.232 13.865 116.653 14.562 117.495 15.0617C118.336 15.5614 119.651 16.1006 121.44 16.6792C123.228 17.2841 124.675 17.8627 125.779 18.4151C126.91 18.9674 127.883 19.7695 128.699 20.8216C129.514 21.8736 129.922 23.2281 129.922 24.885C129.922 26.4631 129.514 27.8965 128.699 29.1852C127.91 30.4739 126.752 31.4997 125.227 32.2624C123.701 33.0251 121.9 33.4065 119.822 33.4065Z" fill="#3146B8"/>
<path d="M164.21 5.63292V33.1303H160.62V20.6638H146.615V33.1303H143.025V5.63292H146.615V17.7049H160.62V5.63292H164.21Z" fill="#3146B8"/>
<path d="M179.769 33.4854C177.744 33.4854 175.903 33.0251 174.246 32.1046C172.615 31.184 171.327 29.8822 170.38 28.1989C169.459 26.4894 168.999 24.5168 168.999 22.2813C168.999 20.072 169.473 18.1257 170.419 16.4425C171.392 14.733 172.708 13.4311 174.364 12.5369C176.021 11.6163 177.876 11.1561 179.927 11.1561C181.978 11.1561 183.833 11.6163 185.49 12.5369C187.147 13.4311 188.448 14.7198 189.395 16.4031C190.368 18.0863 190.855 20.0457 190.855 22.2813C190.855 24.5168 190.355 26.4894 189.356 28.1989C188.383 29.8822 187.055 31.184 185.371 32.1046C183.688 33.0251 181.821 33.4854 179.769 33.4854ZM179.769 30.3293C181.058 30.3293 182.268 30.0268 183.399 29.4219C184.53 28.817 185.437 27.9096 186.121 26.6998C186.831 25.4899 187.186 24.0171 187.186 22.2813C187.186 20.5454 186.844 19.0726 186.16 17.8627C185.476 16.6529 184.582 15.7587 183.478 15.1801C182.373 14.5752 181.176 14.2727 179.888 14.2727C178.573 14.2727 177.363 14.5752 176.258 15.1801C175.18 15.7587 174.312 16.6529 173.654 17.8627C172.997 19.0726 172.668 20.5454 172.668 22.2813C172.668 24.0434 172.984 25.5294 173.615 26.7392C174.272 27.9491 175.14 28.8564 176.219 29.4613C177.297 30.04 178.481 30.3293 179.769 30.3293Z" fill="#3146B8"/>
<path d="M199.954 14.47V27.2126C199.954 28.2647 200.178 29.0142 200.625 29.4613C201.072 29.8822 201.848 30.0926 202.953 30.0926H205.596V33.1303H202.361C200.362 33.1303 198.863 32.67 197.863 31.7495C196.864 30.829 196.364 29.3167 196.364 27.2126V14.47H193.563V11.5111H196.364V6.06688H199.954V11.5111H205.596V14.47H199.954Z" fill="#3146B8"/>
<path d="M229.671 21.4922C229.671 22.1761 229.632 22.8993 229.553 23.662H212.273C212.405 25.7924 213.128 27.4625 214.443 28.6723C215.784 29.8559 217.402 30.4476 219.295 30.4476C220.847 30.4476 222.136 30.0926 223.162 29.3824C224.214 28.646 224.95 27.6729 225.371 26.4631H229.237C228.659 28.5408 227.501 30.2372 225.765 31.5523C224.03 32.841 221.873 33.4854 219.295 33.4854C217.244 33.4854 215.403 33.0251 213.772 32.1046C212.168 31.184 210.906 29.8822 209.985 28.1989C209.065 26.4894 208.604 24.5168 208.604 22.2813C208.604 20.0457 209.051 18.0863 209.946 16.4031C210.84 14.7198 212.089 13.4311 213.693 12.5369C215.324 11.6163 217.191 11.1561 219.295 11.1561C221.347 11.1561 223.162 11.6032 224.74 12.4974C226.318 13.3916 227.528 14.6278 228.369 16.2058C229.237 17.7575 229.671 19.5197 229.671 21.4922ZM225.963 20.7427C225.963 19.375 225.66 18.2047 225.055 17.2315C224.45 16.2321 223.622 15.4825 222.57 14.9828C221.544 14.4568 220.4 14.1938 219.138 14.1938C217.323 14.1938 215.771 14.7724 214.482 15.9296C213.22 17.0869 212.497 18.6912 212.313 20.7427H225.963Z" fill="#3146B8"/>
<path d="M238 3.93652V33.1303H234.41V3.93652H238Z" fill="#3146B8"/>
</svg>
